<!DOCTYPE svg PUBLIC "-//W3C//DTD SVG 1.1//EN" "http://www.w3.org/Graphics/SVG/1.1/DTD/svg11.dtd">
<!-- Uploaded to: SVG Repo, www.svgrepo.com, Transformed by: SVG Repo Mixer Tools -->
<svg fill="#118109" width="205px" height="205px" viewBox="-2.4 -2.4 28.80 28.80" role="img" xmlns="http://www.w3.org/2000/svg" stroke="#118109">
<g id="SVGRepo_bgCarrier" stroke-width="0"/>
<g id="SVGRepo_tracerCarrier" stroke-linecap="round" stroke-linejoin="round"/>
<g id="SVGRepo_iconCarrier">
<title>Overleaf icon</title>
<path d="M7.362 6.029a11.685 11.685 0 00-5.694 9.606 8.368 8.368 0 1011.355-7.823 7.724 7.724 0 00-2.97-.562 12.346 12.346 0 00-4.21 4.87 5.496 5.496 0 114.193 9.027 5.496 5.496 0 01-4.192-1.93 6.602 6.602 0 01-1.585-5.563c1.073-6.42 8.764-10.117 14.458-11.553a59.17 59.17 0 00-7.592 4.374c6.883 2.657 7.989-3.136 11.207-5.728C19.13-.507 7.379-.969 7.362 6.03z"/>
</g>
</svg>